----------------------------------------------------------------------------------------
             500 Days Of Summer 2009 DVDRip x264 AC3 Multisubs nekanilla
________________________________________________________________________________________

---------------------------------------INFO---------------------------------------------

Movie name: 500 Days Of Summer
Country and year of production: USA / 2009
Speech language / subtitle: English / Greek, Arabic, Bosnian, Brazilian, Bulgarian, Croatian, Czech, Danish, Dutch, English, Esthonian, Farsi, French, Hebrew, Hungarian, Indonisian, Italian, Norwegian, Polish, Portyguese, Romanian, Russian, Serbian, Slovenian, Spanish, Swedish, Turkish, Vietnamese SRT
Genre:  Comedy | Drama | Romance 
Movie Length: 95 minutes
Writer: Scott Neustadter, Michael H. Weber
Directed by: Marc Webb 

Nominated for 2 Golden Globes
________________________________________________________________________________________

---------------------------------------PLOT---------------------------------------------

He's Tom, from New Jersey, working in L.A. writing greeting cards even through he's an architect by training. She's Summer, in from Michigan. Day one is her first day as an AA in Tom's office. We jump back and forth in time: by day 67, they've become an item when she decides to put aside the lovemaking and just be friends. Tom, a romantic who's sure Summer is the one for him, wallows in self pity. We go back to the early days and see the relationship begin. Summer tells him right away that she doesn't believe in love. He mopes well past day 100. Then, as day 500 approaches, they find themselves at a wedding together. Does the old flame rekindle? Is Tom right that destiny controls love? 

________________________________________________________________________________________

---------------------------------------CAST---------------------------------------------

Joseph Gordon-Levitt as Tom Hansen
Zooey Deschanel as Summer Finn
Chloe Grace Moretz as Rachel Hansen
Geoffrey Arend as McKenzie
Matthew Gray Gubler as Paul
Clark Gregg as Vance
Rachel Boston as Alison
Minka Kelly as Autumn
Maile Flanagan as Rhoda
Patricia Belcher as Millie
Richard McGonagle as Narrator
Olivia Bagg as Young Summer
Yvette Nicole Brown as Vance's New Secretary
________________________________________________________________________________________

------------------------------------MEDIA INFO------------------------------------------
     
                                 Includes sample
General
Complete name                  : 500 Days Of Summer DVDRip x264 AC3.mkv
Format                         : Matroska
Format version                 : Version 2
File size                      : 1.10 GiB
Duration                       : 1h 35mn
Overall bit rate               : 1 653 Kbps
Writing application            : HandBrake 0.9.8
Writing library                : libmkv 0.6.5

Video
ID                             : 1
Format                         : AVC
Format/Info                    : Advanced Video Codec
Format profile                 : High@L3.0
Format settings, CABAC         : Yes
Format settings, ReFrames      : 9 frames
Codec ID                       : V_MPEG4/ISO/AVC
Duration                       : 1h 35mn
Bit rate                       : 1 200 Kbps
Width                          : 720 pixels
Height                         : 304 pixels
Display aspect ratio           : 2.35:1
Frame rate                     : 23.976 fps
Color space                    : YUV
Chroma subsampling             : 4:2:0
Bit depth                      : 8 bits
Scan type                      : Progressive
Bits/(Pixel*Frame)             : 0.229
Stream size                    : 797 MiB (71%)
Writing library                : x264 core 120
Encoding settings              : cabac=1 / ref=9 / deblock=1:-2:-2 / analyse=0x3:0x133 / me=umh / subme=9 / psy=1 / psy_rd=1.00:0.00 / mixed_ref=1 / me_range=24 / chroma_me=1 / trellis=2 / 8x8dct=1 / cqm=0 / deadzone=21,11 / fast_pskip=0 / chroma_qp_offset=-2 / threads=6 / sliced_threads=0 / nr=0 / decimate=1 / interlaced=0 / bluray_compat=0 / constrained_intra=0 / bframes=6 / b_pyramid=2 / b_adapt=2 / b_bias=0 / direct=3 / weightb=1 / open_gop=0 / weightp=2 / keyint=240 / keyint_min=24 / scenecut=40 / intra_refresh=0 / rc_lookahead=50 / rc=2pass / mbtree=1 / bitrate=1200 / ratetol=1.0 / qcomp=0.60 / qpmin=3 / qpmax=69 / qpstep=4 / cplxblur=20.0 / qblur=0.5 / ip_ratio=1.40 / aq=1:1.20
Language                       : English
Default                        : Yes
Forced                         : No
Color primaries                : BT.601-6 525, BT.1358 525, BT.1700 NTSC, SMPTE 170M
Transfer characteristics       : BT.709-5, BT.1361
Matrix coefficients            : BT.601-6 525, BT.1358 525, BT.1700 NTSC, SMPTE 170M

Audio
ID                             : 2
Format                         : AC-3
Format/Info                    : Audio Coding 3
Mode extension                 : CM (complete main)
Codec ID                       : A_AC3
Duration                       : 1h 35mn
Bit rate mode                  : Constant
Bit rate                       : 448 Kbps
Channel(s)                     : 6 channels
Channel positions              : Front: L C R, Side: L R, LFE
Sampling rate                  : 48.0 KHz
Bit depth                      : 16 bits
Compression mode               : Lossy
Stream size                    : 305 MiB (27%)
Language                       : English
Default                        : Yes
Forced                         : No
________________________________________________________________________________________

________________________________________________________________________________________

-----------------------------------SCREENSHOTS------------------------------------------
                          http://i.imgur.com/4X0DNfa.png   
                          http://i.imgur.com/IV2JFyO.png
                          http://i.imgur.com/q9fRr7x.png
                          http://i.imgur.com/ansztFj.png

________________________________________________________________________________________

                            Source: NTSC DVD

                            Rip   : By   nekanilla